# xmcd
#
# Track frame offsets:
#	150
#	35877
#	54439
#	68189
#	92489
#	115562
#	138651
#	160065
#	185588
#
# Disc length: 2899 seconds
#
# Revision: 0
# Processed by: cddbd v1.5.1PL2 Copyright (c) Steve Scherf et al.
# Submitted via: dBpowerAMP V4.0
#
DISCID=780b5109
DTITLE=Various Artist - Straight From the Streetz the Houston Hard Hitters Vol.2
DYEAR=1999
DGENRE=Hip Hop
TTITLE0=DJ DMD - 25 Lighters
TTITLE1=Mista Madd - Southern Style
TTITLE2=Big Tiger and Lil' Ron - Southern Freestyle
TTITLE3=Botany Boyz - I'm Just a G
TTITLE4=Fat Pat - Superstar
TTITLE5=Ace Deuce - RSF
TTITLE6=Mista Madd - Can I Get a Lil' Luv
TTITLE7=Money Black and KB - Northside
TTITLE8=ESG - Swangin' and Bangin'
EXTD=
EXTT0=
EXTT1=
EXTT2=
EXTT3=
EXTT4=
EXTT5=
EXTT6=
EXTT7=
EXTT8=
PLAYORDER=
